<svg xmlns="http://www.w3.org/2000/svg" viewBox="0 0 100 100" width="200" height="200">
    <!-- Tobacco Pipe -->
    <path
        d="M50,20c-7.732,0-14,6.268-14,14v17c0,5.78,4.453,10.548,10.169,11.274L36,69h28l0.831-6.726C59.547,61.548,64,56.78,64,51V34
      c0-7.732-6.268-14-14-14H50z M55,47H45v-5h10V47z M58,34c0-5.514-4.486-10-10-10c-5.514,0-10,4.486-10,10v6h20V34z" />
    <!-- Cigar -->
    <path
        d="M80,40H20c-1.104,0-2,0.896-2,2v16c0,1.104,0.896,2,2,2h60c1.104,0,2-0.896,2-2V42C82,40.896,81.104,40,80,40z M78,56H22
      c-0.553,0-1-0.447-1-1V43h58v12C79,55.553,78.553,56,78,56z" />
</svg>
  