<svg xmlns="http://www.w3.org/2000/svg" viewBox="0 0 200 100">
    <defs><path id="gl_1" d="M12,0 l-11.671875,-30.070312 l4.875,0 l9.609375,23.90625 l9.8203125,-23.90625 l3.9375,0 l-11.9296875,30.070312 l-4.640625,0 Z"/></defs><use href="#gl_1" transform="translate(50,50)" fill="rgba(255,255,255,1)" stroke="none"/>
    <defs><path id="gl_2" d="M23.671875,-29.367188 l0,4.0078125 c-3.390625,-1.3125 -6.40625,-1.96875 -9.046875,-1.96875 c-4.171875,0 -6.2578125,1.40625 -6.2578125,4.21875 c0,1.140625 0.390625,2.0546875 1.171875,2.7421875 c0.78125,0.703125 2.2265625,1.421875 4.3359375,2.15625 l2.953125,1.03125 l2.8125,0.9609375 c4.359375,1.53125 6.5390625,4.125 6.5390625,7.78125 c0,2.78125 -1.109375,5 -3.328125,6.65625 c-2.234375,1.671875 -5.21875,2.5078125 -8.953125,2.5078125 c-2.59375,0 -5.9453125,-0.5546875 -10.0546875,-1.6640625 l0,-4.5703125 c4.09375,1.84375 7.4921875,2.765625 10.1953125,2.765625 c2.28125,0 4.1015625,-0.453125 5.4609375,-1.359375 c1.359375,-0.890625 2.0390625,-2.09375 2.0390625,-3.609375 c0,-1.15625 -0.40625,-2.0703125 -1.21875,-2.7421875 c-0.796875,-0.671875 -2.453125,-1.46875 -4.96875,-2.390625 l-3.09375,-1.125 c-3.078125,-1.140625 -5.2109375,-2.3125 -6.3984375,-3.515625 c-1.203125,-1.203125 -1.8046875,-2.8046875 -1.8046875,-4.8046875 c0,-2.703125 0.921875,-4.796875 2.765625,-6.28125 c1.828125,-1.484375 4.40625,-2.2265625 7.734375,-2.2265625 c2.703125,0 5.7421875,0.4765625 9.1171875,1.4296875 Z"/></defs><use href="#gl_2" transform="translate(50,50)" fill="rgba(146,112,24,1)" stroke="none"/>
</svg>